<svg width="20" height="20" viewBox="0 0 20 20" fill="none" xmlns="http://www.w3.org/2000/svg">
<path d="M9.89282 12.5713L11.1587 13.857L14.9563 10L11.1587 6.14309L9.89282 7.42874L11.5295 9.09095H4.78292V10.9091H11.5294L9.89282 12.5713Z" fill="#070E1F"/>
<path fill-rule="evenodd" clip-rule="evenodd" d="M16.8086 17.0711C20.6538 13.1658 20.6538 6.83418 16.8086 2.92893C12.9635 -0.976311 6.72922 -0.976311 2.88406 2.92893C-0.961107 6.83418 -0.961107 13.1658 2.88406 17.0711C6.72922 20.9763 12.9635 20.9763 16.8086 17.0711ZM15.5428 15.7854C18.6888 12.5902 18.6888 7.40978 15.5428 4.21458C12.3967 1.01938 7.29597 1.01938 4.14992 4.21458C1.00388 7.40978 1.00388 12.5902 4.14992 15.7854C7.29597 18.9806 12.3967 18.9806 15.5428 15.7854Z" fill="#070E1F"/>
</svg>
