<svg width="20" height="21" viewBox="0 0 20 21" fill="none" xmlns="http://www.w3.org/2000/svg">
<path d="M10.0472 12.9253L11.3329 14.211L15.1898 10.354L11.3329 6.49709L10.0472 7.78274L11.7094 9.44495H4.85747V11.2631H11.7094L10.0472 12.9253Z" fill="black"/>
<path fill-rule="evenodd" clip-rule="evenodd" d="M17.0711 17.4251C20.9763 13.5198 20.9763 7.18818 17.0711 3.28294C13.1658 -0.622307 6.83418 -0.622307 2.92893 3.28294C-0.976311 7.18818 -0.976311 13.5198 2.92893 17.4251C6.83418 21.3303 13.1658 21.3303 17.0711 17.4251ZM15.7854 16.1394C18.9806 12.9442 18.9806 7.76378 15.7854 4.56859C12.5902 1.37339 7.40978 1.37339 4.21458 4.56859C1.01938 7.76378 1.01938 12.9442 4.21458 16.1394C7.40978 19.3346 12.5902 19.3346 15.7854 16.1394Z" fill="black"/>
</svg>
