<svg id="SvgjsSvg1001" width="288" height="288" xmlns="http://www.w3.org/2000/svg" version="1.1" xmlns:xlink="http://www.w3.org/1999/xlink" xmlns:svgjs="http://svgjs.com/svgjs"><defs id="SvgjsDefs1002"></defs><g id="SvgjsG1008" transform="matrix(1,0,0,1,0,0)"><svg xmlns="http://www.w3.org/2000/svg" width="288" height="288" fill="none" viewBox="0 0 20 20"><path fill="#00cbcc" d="M10.0472 12.5713L11.3329 13.857L15.1898 10L11.3329 6.14309L10.0472 7.42874L11.7094 9.09095H4.85747V10.9091H11.7094L10.0472 12.5713Z" class="color96F3F7 svgShape"></path><path fill="#00cbcc" fill-rule="evenodd" d="M17.0711 17.0711C20.9763 13.1658 20.9763 6.83418 17.0711 2.92893C13.1658 -0.976311 6.83418 -0.976311 2.92893 2.92893C-0.976311 6.83418 -0.976311 13.1658 2.92893 17.0711C6.83418 20.9763 13.1658 20.9763 17.0711 17.0711ZM15.7854 15.7854C18.9806 12.5902 18.9806 7.40978 15.7854 4.21458C12.5902 1.01938 7.40978 1.01938 4.21458 4.21458C1.01938 7.40978 1.01938 12.5902 4.21458 15.7854C7.40978 18.9806 12.5902 18.9806 15.7854 15.7854Z" clip-rule="evenodd" class="color96F3F7 svgShape"></path></svg></g></svg>