<svg width="64" height="51" viewBox="0 0 64 51" fill="none" xmlns="http://www.w3.org/2000/svg">
<path d="M53.3871 28.1022L35.6046 45.1161C34.4674 46.2041 34.4604 48.0186 35.5891 49.1153L35.8765 49.3946C36.9502 50.4379 38.6574 50.4427 39.7369 49.4055L62.927 27.1243C64.0602 26.0355 64.0653 24.2243 62.9383 23.1291L40.0429 0.881089C38.9649 -0.166419 37.2492 -0.16642 36.1712 0.881089L35.8787 1.16531C34.7561 2.25618 34.7561 4.05873 35.8787 5.1496L53.3871 22.163H2.77778C1.24366 22.163 0 23.4066 0 24.9407V25.3244C0 26.8585 1.24365 28.1022 2.77778 28.1022H53.3871Z" fill="#95F1F5"/>
</svg>
