<svg width="28" height="16" viewBox="0 0 28 16" fill="none" xmlns="http://www.w3.org/2000/svg">
<path d="M1.17188 7C0.61959 7 0.171875 7.44772 0.171875 8C0.171875 8.55228 0.61959 9 1.17188 9V7ZM27.379 8.70711C27.7695 8.31658 27.7695 7.68342 27.379 7.29289L21.015 0.928932C20.6245 0.538408 19.9913 0.538408 19.6008 0.928932C19.2103 1.31946 19.2103 1.95262 19.6008 2.34315L25.2577 8L19.6008 13.6569C19.2103 14.0474 19.2103 14.6805 19.6008 15.0711C19.9913 15.4616 20.6245 15.4616 21.015 15.0711L27.379 8.70711ZM1.17188 9H26.6719V7H1.17188V9Z" fill="#2F28AD"/>
</svg>
