<svg width="24" height="24" viewBox="0 0 24 24" fill="none" xmlns="http://www.w3.org/2000/svg">
<path d="M12 0C5.4 0 0 5.4 0 12C0 18.6 5.4 24 12 24C18.6 24 24 18.6 24 12C24 5.4 18.6 0 12 0ZM12 21.75C6.6 21.75 2.25 17.4 2.25 12C2.25 6.6 6.6 2.25 12 2.25C17.4 2.25 21.75 6.6 21.75 12C21.75 17.4 17.4 21.75 12 21.75Z" fill="#97A3AA"/>
<path d="M6 11.25V10.5C6 9.675 6.675 9 7.5 9C8.325 9 9 9.675 9 10.5V11.25H6ZM15 11.25V10.5C15 9.675 15.675 9 16.5 9C17.325 9 18 9.675 18 10.5V11.25H15ZM12 18C14.475 18 16.5 15.975 16.5 13.5H7.5C7.5 15.975 9.525 18 12 18Z" fill="#97A3AA"/>
</svg>
