<svg width="24" height="24" viewBox="0 0 24 24" fill="none" xmlns="http://www.w3.org/2000/svg">
<path d="M12 0C5.4 0 0 5.4 0 12C0 18.6 5.4 24 12 24C18.6 24 24 18.6 24 12C24 5.4 18.6 0 12 0ZM12 21.75C6.6 21.75 2.25 17.4 2.25 12C2.25 6.6 6.6 2.25 12 2.25C17.4 2.25 21.75 6.6 21.75 12C21.75 17.4 17.4 21.75 12 21.75Z" fill="#97A3AA"/>
<path d="M8.25 14.25H15.75V16.5H8.25V14.25Z" fill="#97A3AA"/>
<path d="M7.5 12C8.32843 12 9 11.3284 9 10.5C9 9.67157 8.32843 9 7.5 9C6.67157 9 6 9.67157 6 10.5C6 11.3284 6.67157 12 7.5 12Z" fill="#97A3AA"/>
<path d="M16.5 12C17.3284 12 18 11.3284 18 10.5C18 9.67157 17.3284 9 16.5 9C15.6716 9 15 9.67157 15 10.5C15 11.3284 15.6716 12 16.5 12Z" fill="#97A3AA"/>
</svg>
