<svg xmlns="http://www.w3.org/2000/svg" width="109" height="79" viewBox="0 0 109 79">
    <g fill="none" fill-rule="evenodd">
        <path fill="#E6ECF1" d="M17 49.5a1.5 1.5 0 0 0-1.5-1.5h-6a1.5 1.5 0 1 0 0 3h6a1.5 1.5 0 0 0 1.5-1.5zm-13 0A1.5 1.5 0 0 0 2.5 48h-1a1.5 1.5 0 1 0 0 3h1A1.5 1.5 0 0 0 4 49.5zm85 0a1.5 1.5 0 0 0-1.5-1.5h-26a1.5 1.5 0 1 0 0 3h26a1.5 1.5 0 0 0 1.5-1.5zm-47 0a1.5 1.5 0 0 0-1.5-1.5h-18a1.5 1.5 0 1 0 0 3h18a1.5 1.5 0 0 0 1.5-1.5zm-30-11a1.5 1.5 0 0 0-1.5-1.5h-1a1.5 1.5 0 1 0 0 3h1a1.5 1.5 0 0 0 1.5-1.5zm77 0a1.5 1.5 0 0 0-1.5-1.5h-26a1.5 1.5 0 1 0 0 3h26a1.5 1.5 0 0 0 1.5-1.5zm-52 0a1.5 1.5 0 0 0-1.5-1.5h-18a1.5 1.5 0 1 0 0 3h18a1.5 1.5 0 0 0 1.5-1.5zm-10-11a1.5 1.5 0 0 0-1.5-1.5h-8a1.5 1.5 0 1 0 0 3h8a1.5 1.5 0 0 0 1.5-1.5zm10 0a1.5 1.5 0 0 0-1.5-1.5h-3a1.5 1.5 0 1 0 0 3h3a1.5 1.5 0 0 0 1.5-1.5zm-8-11a1.5 1.5 0 0 0-1.5-1.5h-2a1.5 1.5 0 1 0 0 3h2a1.5 1.5 0 0 0 1.5-1.5zM66 24l-1-3-1 3h2zm3.012 4.91a1.5 1.5 0 0 1-1.923-.897l-.55-1.514H62.46l-.55 1.514a1.5 1.5 0 0 1-2.82-1.027l4-11.003c.008-.02.02-.037.028-.057a1.883 1.883 0 0 1 .14-.264 1.21 1.21 0 0 1 .087-.114 1.51 1.51 0 0 1 .1-.113c.031-.032.066-.06.101-.09a1.285 1.285 0 0 1 .236-.16c.05-.028.101-.053.155-.075.017-.007.032-.018.05-.025.022-.007.043-.009.065-.016a1.344 1.344 0 0 1 .296-.062 1.413 1.413 0 0 1 .598.061c.022.007.045.01.067.017.018.007.034.018.052.026.052.021.102.046.152.072.038.022.076.043.113.067.043.03.083.061.123.094.036.03.07.06.104.091.035.036.067.074.098.112.03.037.06.074.087.114a1.883 1.883 0 0 1 .14.266c.009.019.02.036.028.056l4 11.003c.282.78-.12 1.64-.898 1.924zM89 27.5a1.5 1.5 0 0 0-1.5-1.5h-13a1.5 1.5 0 1 0 0 3h13a1.5 1.5 0 0 0 1.5-1.5zm0-11a1.5 1.5 0 0 0-1.5-1.5h-16a1.5 1.5 0 1 0 0 3h16a1.5 1.5 0 0 0 1.5-1.5zM40.5 18h-6a1.5 1.5 0 1 1 0-3h6a1.5 1.5 0 1 1 0 3z"/>
        <path fill="#D3DCE4" d="M75.5 62C59.785 62 47 49.215 47 33.5S59.785 5 75.5 5 104 17.785 104 33.5 91.215 62 75.5 62m0-62C57.028 0 42 15.028 42 33.5c0 8.338 3.069 15.968 8.127 21.837L30.732 74.732a2.501 2.501 0 0 0 3.536 3.536l19.395-19.395C59.532 63.931 67.162 67 75.5 67 93.972 67 109 51.972 109 33.5S93.972 0 75.5 0"/>
    </g>
</svg>
