<svg width="153" height="17" viewBox="0 0 153 17" fill="none" xmlns="http://www.w3.org/2000/svg">
<path d="M150.224 0.761939H149.77V0.436035H151.123V0.761939H150.672V1.85071H150.225V0.761939H150.224Z" fill="#17176E"/>
<path d="M152.563 1.37383C152.563 1.14954 152.568 0.877348 152.577 0.711856H152.573C152.507 0.985499 152.419 1.3506 152.282 1.85071H151.914C151.806 1.38544 151.716 0.994935 151.649 0.708953H151.646C151.654 0.873719 151.67 1.14664 151.67 1.38979V1.85071H151.27V0.436035H151.91C151.999 0.754681 152.086 1.10236 152.125 1.34044H152.128C152.181 1.09002 152.268 0.759762 152.361 0.436035H152.999V1.85071H152.563V1.37383H152.563Z" fill="#17176E"/>
<path d="M26.0264 4.51541H30.1718V6.83738H30.2954C30.7281 5.11931 31.7186 4.35645 32.9872 4.35645C33.3585 4.35645 33.7299 4.42032 34.0702 4.52339V8.26875C33.6445 8.11777 32.9336 8.04591 32.4923 8.04591C31.2315 8.04591 30.2961 8.96846 30.2961 10.3679V16.7299H26.0264V4.51541Z" fill="#17176E"/>
<path d="M42.8395 4.51562H47.1092V16.7301H43.0563V14.4082H42.9327C42.4145 15.9665 41.0534 16.8891 39.2822 16.8891C36.7837 16.8891 35.1445 14.9808 35.1367 12.3083V4.51562H39.4064V11.3865C39.4142 12.595 40.0326 13.3266 41.1078 13.3266C42.1674 13.3266 42.848 12.595 42.8402 11.3865V4.51562H42.8395Z" fill="#17176E"/>
<path d="M48.5776 10.6226C48.5776 6.20148 50.8671 4.35639 53.2187 4.35639C54.9822 4.35639 56.0962 5.40596 56.56 6.64642H56.6221V0.443359H60.8918V16.7299H56.6532V14.7258H56.5607C56.0658 15.9663 54.9207 16.8888 53.2504 16.8888C50.7118 16.8888 48.5776 14.8528 48.5776 10.6226ZM56.7139 10.6226C56.7139 8.80944 56.0023 7.72793 54.8269 7.72793C53.6514 7.72793 52.9709 8.80944 52.9709 10.6226C52.9709 12.4358 53.6514 13.5173 54.8269 13.5173C56.0023 13.5173 56.7139 12.4038 56.7139 10.6226Z" fill="#17176E"/>
<path d="M62.2974 10.6226C62.2974 6.20148 64.5868 4.35639 66.9384 4.35639C68.7019 4.35639 69.8159 5.40596 70.2797 6.64642H70.3419V0.443359H74.6116V16.7299H70.3729V14.7258H70.2805C69.7856 15.9663 68.6405 16.8888 66.9702 16.8888C64.4315 16.8888 62.2974 14.8528 62.2974 10.6226ZM70.4336 10.6226C70.4336 8.80944 69.722 7.72793 68.5466 7.72793C67.3712 7.72793 66.6906 8.80944 66.6906 10.6226C66.6906 12.4358 67.3712 13.5173 68.5466 13.5173C69.722 13.5173 70.4336 12.4038 70.4336 10.6226Z" fill="#17176E"/>
<path d="M75.9551 10.6546C75.9551 6.86932 78.3067 4.35645 81.9883 4.35645C85.5767 4.35645 87.8972 6.73431 87.8972 10.6227V11.6403H80.1626V11.8312C80.1626 13.0078 80.9053 13.8672 82.1739 13.8672C83.0479 13.8672 83.7518 13.4774 83.9996 12.7857H87.8979C87.4955 15.3305 85.3762 16.9527 82.0815 16.9527C78.2756 16.9527 75.9551 14.6068 75.9551 10.6546ZM83.9678 9.22323C83.9445 8.17366 83.1404 7.44201 82.0808 7.44201C81.0366 7.44201 80.1859 8.16568 80.1626 9.22323H83.9678Z" fill="#17176E"/>
<path d="M89.3037 4.51541H93.4492V6.83738H93.5727C94.0055 5.11931 94.9959 4.35645 96.2646 4.35645C96.6359 4.35645 97.0072 4.42032 97.3475 4.52339V8.26875C96.9218 8.11777 96.2109 8.04591 95.7697 8.04591C94.5088 8.04591 93.5734 8.96846 93.5734 10.3679V16.7299H89.3037V4.51541Z" fill="#17176E"/>
<path d="M105.692 7.87873C105.421 7.05998 104.756 6.2405 103.318 6.2405C102.003 6.2405 101.013 6.90828 101.02 7.84679C101.013 8.67353 101.577 9.12718 102.884 9.4451L104.771 9.89077C106.953 10.4076 108.019 11.4731 108.019 13.1992C108.019 15.4101 106.031 16.9765 103.162 16.9765C100.494 16.9765 98.7458 15.7599 98.3589 13.5969L100.594 13.2471C100.872 14.4476 101.762 15.0602 103.146 15.0602C104.662 15.0602 105.644 14.3206 105.644 13.3741C105.644 12.6105 105.111 12.0857 103.966 11.8237L101.955 11.3708C99.7277 10.862 98.7069 9.70858 98.7069 7.97527C98.7069 5.81225 100.61 4.35693 103.294 4.35693C105.861 4.35693 107.308 5.5974 107.787 7.49839L105.692 7.87873Z" fill="#17176E"/>
<path d="M115.776 6.42372H113.34V13.1436C113.34 14.5191 114.013 14.7738 114.763 14.7738C115.134 14.7738 115.42 14.702 115.575 14.6708L115.993 16.6349C115.722 16.738 115.227 16.8817 114.493 16.8897C112.667 16.9296 111.02 15.8561 111.028 13.6372V6.42372H109.288V4.51547H111.028V1.58887H113.341V4.51547H115.777V6.42372H115.776Z" fill="#17176E"/>
<path d="M117.445 13.2783C117.445 10.5026 119.75 9.89874 122 9.628C124.135 9.37323 125.001 9.3892 125.001 8.52254V8.46665C125.001 7.08319 124.236 6.27968 122.743 6.27968C121.189 6.27968 120.322 7.1144 119.982 7.98179L117.808 7.47297C118.582 5.24608 120.562 4.35547 122.712 4.35547C124.599 4.35547 127.322 5.06317 127.322 8.61763V16.7289H125.064V15.0588H124.971C124.53 15.9733 123.424 16.999 121.46 16.999C119.201 16.9997 117.445 15.6801 117.445 13.2783ZM125.009 12.3238V10.7494C124.677 11.0913 122.898 11.2982 122.147 11.4012C120.809 11.5842 119.711 12.0371 119.711 13.3095C119.711 14.4861 120.655 15.0907 121.962 15.0907C123.887 15.0914 125.009 13.7711 125.009 12.3238Z" fill="#17176E"/>
<path d="M129.54 10.6776C129.54 6.94818 131.706 4.35547 135.054 4.35547C137.754 4.35547 139.71 5.9937 139.958 8.45867H137.707C137.46 7.31328 136.563 6.35953 135.093 6.35953C133.16 6.35953 131.875 8.00574 131.875 10.6217C131.875 13.2855 133.136 14.9637 135.093 14.9637C136.415 14.9637 137.414 14.1841 137.707 12.8645H139.958C139.702 15.2424 137.885 16.9757 135.078 16.9757C131.628 16.9764 129.54 14.3598 129.54 10.6776Z" fill="#17176E"/>
<path d="M142.116 0.443359H144.428V9.68408H144.63L149.363 4.51535H152.132L147.321 9.75594L152.457 16.7299H149.618L145.581 11.2113L144.428 12.3958V16.7299H142.116V0.443359Z" fill="#17176E"/>
<path d="M12.6373 8.66217V4.33105H8.4248C8.4248 6.72271 10.3104 8.66217 12.6373 8.66217Z" fill="#17176E"/>
<path d="M0 16.7299H6.23298C9.76988 16.7299 12.6375 13.7815 12.6375 10.145H0V16.7299Z" fill="#17176E"/>
<path d="M8.4248 0C8.4248 2.39166 10.3104 4.33111 12.6373 4.33111V0H8.4248Z" fill="#17176E"/>
<path d="M4.2124 0C4.2124 2.39166 6.09804 4.33111 8.42491 4.33111H4.2124C4.2124 6.72277 6.09804 8.66223 8.42491 8.66223V4.33111V0H4.2124Z" fill="#17176E"/>
<path d="M4.21251 8.66217V4.33105H0C0 6.72271 1.88564 8.66217 4.21251 8.66217Z" fill="#17176E"/>
</svg>
